<svg width="21" height="21" viewBox="0 0 21 21" fill="none" xmlns="http://www.w3.org/2000/svg">
<path d="M6.25996 0.671875H14.66C17.86 0.671875 20.46 3.27188 20.46 6.47188V14.8719C20.46 16.4101 19.8489 17.8854 18.7612 18.9731C17.6735 20.0608 16.1982 20.6719 14.66 20.6719H6.25996C3.05996 20.6719 0.459961 18.0719 0.459961 14.8719V6.47188C0.459961 4.93362 1.07103 3.45837 2.15874 2.37066C3.24645 1.28294 4.72171 0.671875 6.25996 0.671875ZM6.05996 2.67188C5.10518 2.67188 4.18951 3.05116 3.51438 3.72629C2.83925 4.40142 2.45996 5.3171 2.45996 6.27187V15.0719C2.45996 17.0619 4.06996 18.6719 6.05996 18.6719H14.86C15.8147 18.6719 16.7304 18.2926 17.4055 17.6175C18.0807 16.9423 18.46 16.0267 18.46 15.0719V6.27187C18.46 4.28187 16.85 2.67188 14.86 2.67188H6.05996ZM15.71 4.17188C16.0415 4.17188 16.3594 4.30357 16.5938 4.53799C16.8283 4.77241 16.96 5.09035 16.96 5.42188C16.96 5.7534 16.8283 6.07134 16.5938 6.30576C16.3594 6.54018 16.0415 6.67188 15.71 6.67188C15.3784 6.67188 15.0605 6.54018 14.8261 6.30576C14.5917 6.07134 14.46 5.7534 14.46 5.42188C14.46 5.09035 14.5917 4.77241 14.8261 4.53799C15.0605 4.30357 15.3784 4.17188 15.71 4.17188ZM10.46 5.67188C11.786 5.67188 13.0578 6.19866 13.9955 7.13634C14.9332 8.07402 15.46 9.34579 15.46 10.6719C15.46 11.998 14.9332 13.2697 13.9955 14.2074C13.0578 15.1451 11.786 15.6719 10.46 15.6719C9.13388 15.6719 7.86211 15.1451 6.92443 14.2074C5.98674 13.2697 5.45996 11.998 5.45996 10.6719C5.45996 9.34579 5.98674 8.07402 6.92443 7.13634C7.86211 6.19866 9.13388 5.67188 10.46 5.67188ZM10.46 7.67188C9.66431 7.67188 8.90125 7.98795 8.33864 8.55055C7.77603 9.11316 7.45996 9.87623 7.45996 10.6719C7.45996 11.4675 7.77603 12.2306 8.33864 12.7932C8.90125 13.3558 9.66431 13.6719 10.46 13.6719C11.2556 13.6719 12.0187 13.3558 12.5813 12.7932C13.1439 12.2306 13.46 11.4675 13.46 10.6719C13.46 9.87623 13.1439 9.11316 12.5813 8.55055C12.0187 7.98795 11.2556 7.67188 10.46 7.67188Z" fill="white"/>
</svg>
