<svg width="21" height="18" viewBox="0 0 21 18" fill="none" xmlns="http://www.w3.org/2000/svg">
<path d="M20.92 2.67188C20.15 3.02187 19.32 3.25188 18.46 3.36188C19.34 2.83188 20.02 1.99187 20.34 0.981875C19.51 1.48187 18.59 1.83188 17.62 2.03188C16.83 1.17188 15.72 0.671875 14.46 0.671875C12.11 0.671875 10.19 2.59188 10.19 4.96187C10.19 5.30188 10.23 5.63188 10.3 5.94188C6.74 5.76188 3.57 4.05187 1.46 1.46187C1.09 2.09187 0.88 2.83188 0.88 3.61188C0.88 5.10188 1.63 6.42188 2.79 7.17188C2.08 7.17188 1.42 6.97188 0.84 6.67188V6.70187C0.84 8.78187 2.32 10.5219 4.28 10.9119C3.65073 11.0841 2.9901 11.108 2.35 10.9819C2.62161 11.8344 3.15354 12.5803 3.87102 13.1148C4.5885 13.6493 5.45545 13.9456 6.35 13.9619C4.83363 15.1623 2.954 15.8112 1.02 15.8019C0.68 15.8019 0.34 15.7819 0 15.7419C1.9 16.9619 4.16 17.6719 6.58 17.6719C14.46 17.6719 18.79 11.1319 18.79 5.46187C18.79 5.27187 18.79 5.09187 18.78 4.90187C19.62 4.30187 20.34 3.54187 20.92 2.67188Z" fill="white"/>
</svg>
