<svg width="24" height="23" viewBox="0 0 24 23" fill="none" xmlns="http://www.w3.org/2000/svg">
<path d="M11.8248 0.671876C5.5457 0.669337 0.459961 5.75254 0.459961 12.0266C0.459961 16.9879 3.64141 21.2053 8.07207 22.7541C8.66875 22.9039 8.57734 22.4799 8.57734 22.1904V20.2227C5.13184 20.6264 4.99219 18.3463 4.76113 17.9654C4.29394 17.1682 3.18945 16.965 3.51953 16.5842C4.3041 16.1805 5.10391 16.6857 6.03066 18.0543C6.70098 19.0471 8.00859 18.8795 8.67129 18.7145C8.81602 18.1178 9.12578 17.5846 9.55234 17.1707C5.98242 16.5309 4.49453 14.3523 4.49453 11.7625C4.49453 10.5057 4.9084 9.35039 5.7209 8.41856C5.20293 6.88242 5.76914 5.56719 5.84531 5.37168C7.32051 5.23965 8.8541 6.42793 8.97344 6.52188C9.81133 6.2959 10.7686 6.17656 11.84 6.17656C12.9166 6.17656 13.8764 6.30098 14.7219 6.52949C15.0088 6.31113 16.4307 5.29043 17.8018 5.41484C17.8754 5.61035 18.4289 6.89512 17.9414 8.41094C18.7641 9.34531 19.183 10.5107 19.183 11.7701C19.183 14.365 17.685 16.5461 14.1049 17.1758C14.4115 17.4773 14.655 17.837 14.8211 18.2337C14.9872 18.6304 15.0726 19.0562 15.0723 19.4863V22.3428C15.0926 22.5713 15.0723 22.7973 15.4531 22.7973C19.9498 21.2814 23.1871 17.0336 23.1871 12.0291C23.1871 5.75254 18.0988 0.671876 11.8248 0.671876Z" fill="white"/>
</svg>
